<?xml version="1.0" standalone="no"?>
<!DOCTYPE svg PUBLIC "-//W3C//DTD SVG 20010904//EN"
 "http://www.w3.org/TR/2001/REC-SVG-20010904/DTD/svg10.dtd">
<svg version="1.0" xmlns="http://www.w3.org/2000/svg"
 width="667.000000pt" height="667.000000pt" viewBox="0 0 667.000000 667.000000"
 preserveAspectRatio="xMidYMid meet">
<metadata>
Created by potrace 1.11, written by Peter Selinger 2001-2013
</metadata>
<g transform="translate(0.000000,667.000000) scale(0.100000,-0.100000)"
fill="#000000" stroke="none">
<path d="M880 6655 c-14 -8 -38 -15 -55 -15 -88 -1 -279 -78 -409 -165 -48
-32 -150 -133 -199 -196 -100 -131 -176 -321 -196 -494 -21 -171 -17 -4765 4
-4950 3 -27 13 -77 21 -110 18 -69 112 -267 146 -307 13 -14 37 -43 54 -65 54
-65 86 -93 175 -153 129 -87 248 -139 359 -157 19 -3 52 -11 72 -18 45 -15
214 -20 248 -7 14 5 43 12 65 15 22 4 56 11 75 17 19 6 46 13 60 16 44 9 191
86 254 133 82 62 106 85 998 975 427 427 781 776 786 776 12 0 203 -188 1012
-994 382 -381 720 -710 750 -732 71 -51 127 -84 146 -84 8 0 14 -4 14 -10 0
-5 5 -10 10 -10 6 0 29 -9 53 -19 162 -74 377 -107 499 -77 35 8 74 17 88 19
42 8 181 57 245 87 64 30 196 132 256 197 89 96 174 237 205 338 2 6 14 44 26
85 l23 75 -1 2355 c0 1295 -3 2429 -7 2520 -4 122 -11 180 -25 225 -11 33 -25
83 -32 110 -19 71 -73 169 -138 250 -124 153 -250 259 -337 279 -16 4 -47 16
-70 26 -22 10 -67 25 -101 34 -34 9 -76 22 -95 30 -23 10 -79 14 -177 15 -136
2 -147 1 -235 -30 -116 -40 -234 -96 -314 -148 -78 -50 -135 -105 -967 -936
-375 -374 -717 -713 -761 -753 l-78 -72 -105 102 c-57 57 -367 364 -687 683
-574 571 -876 868 -949 933 -39 35 -186 126 -186 116 0 -4 -6 -2 -12 4 -17 13
-202 72 -228 72 -10 0 -22 5 -25 10 -4 6 -10 8 -15 5 -5 -3 -11 -1 -15 5 -10
16 -195 12 -225 -5z"/>
</g>
</svg>
